<?xml version="1.0" standalone="no"?><!DOCTYPE svg PUBLIC "-//W3C//DTD SVG 1.1//EN" "http://www.w3.org/Graphics/SVG/1.1/DTD/svg11.dtd"><svg t="1553309232996" class="icon" style="" viewBox="0 0 1024 1024" version="1.1" xmlns="http://www.w3.org/2000/svg" p-id="2600" xmlns:xlink="http://www.w3.org/1999/xlink" width="200" height="200"><defs><style type="text/css"></style></defs><path d="M1016.90297 440.015842l-121.663366-197.702971s0-0.506931-0.506931-0.50693c-0.506931-0.506931-1.013861-1.520792-1.520792-2.027723l-0.506931-0.506931-2.027722-2.027723h-0.506931c-0.506931-0.506931-1.520792-1.013861-2.027723-1.520792-0.506931 0-0.506931-0.506931-1.013861-0.50693s-0.506931-0.506931-1.013862-0.506931l-368.538613-135.350495c-0.506931 0-1.013861-0.506931-2.027723-0.506931-0.506931 0-1.520792-0.506931-2.027723-0.506931h-4.055445c-1.013861 0-1.520792 0.506931-2.534654 0.506931-0.506931 0-1.013861 0-1.520792 0.506931L137.378218 235.215842c-0.506931 0-0.506931 0.506931-1.013862 0.50693s-0.506931 0.506931-1.013861 0.506931c-0.506931 0.506931-1.520792 1.013861-2.027723 1.520792 0 0-0.506931 0-0.50693 0.506931-1.013861 0.506931-1.520792 1.013861-2.027723 2.027723l-0.506931 0.50693c-0.506931 0.506931-1.013861 1.013861-1.520792 2.027723 0 0 0 0.506931-0.506931 0.506931l-121.663366 197.70297c-2.534653 4.055446-3.548515 9.124752-2.027723 14.194059s4.562376 8.617822 9.124753 11.152476l109.497029 55.255445 0.506931 228.118812c0 7.09703 4.055446 13.687129 10.645545 16.221782l370.059406 158.669307h0.50693c1.013861 0.506931 1.520792 0.506931 2.534654 1.013862h1.013861c1.013861 0 2.027723 0.506931 3.041584 0.50693 1.013861 0 2.027723 0 3.041584-0.50693h1.013862c1.013861 0 1.520792-0.506931 2.534653-1.013862h0.506931l370.059406-158.669307c6.590099-3.041584 10.645545-9.124752 10.645545-16.221782l0.50693-228.118812L1009.29901 466.376238c4.562376-2.027723 7.60396-6.083168 9.124752-11.152476 2.027723-5.576238 1.520792-10.645545-1.520792-15.20792zM149.544554 493.750495L47.144554 442.550495l102.906931-166.780198L487.667327 456.237624 395.405941 616.934653 149.544554 493.750495z m344.712872 386.788119l-334.574258-143.461386-0.50693-198.716832 235.215841 118.114852c1.013861 0.506931 2.534653 1.013861 3.548515 1.520792h1.520792c1.013861 0 1.520792 0 2.534654 0.50693h2.534653c1.013861 0 2.027723-0.506931 3.041584-0.50693h0.506931c1.013861-0.506931 1.520792-0.506931 2.534653-1.013862 0 0 0.506931 0 0.506931-0.50693 1.013861-0.506931 1.520792-1.013861 2.534654-1.520793l0.50693-0.50693c0.506931-0.506931 1.520792-1.013861 2.027723-2.027723l0.506931-0.506931c0.506931-1.013861 1.520792-1.520792 2.027722-2.534653l76.546535-133.322772v364.483168z m0-460.8L218.994059 271.714851l-31.936633-17.235643L494.257426 141.940594v277.79802z m35.485148-277.79802l307.2 113.045545-2.027723 1.013861-305.172277 163.738614V141.940594z m334.574258 595.136634l-334.574258 143.461386v-364.483168l76.546535 133.322772c0.506931 1.013861 1.013861 1.520792 2.027723 2.534653l0.50693 0.506931c0.506931 0.506931 1.013861 1.013861 2.027723 1.520792 0 0 0.506931 0 0.506931 0.506931 1.013861 0.506931 1.520792 1.013861 2.534653 1.520792 0 0 0.506931 0 0.506931 0.506931 0.506931 0.506931 1.520792 0.506931 2.027723 1.013861h0.50693c1.013861 0.506931 2.027723 0.506931 3.041585 0.506931h2.534653c1.013861 0 1.520792 0 2.534654-0.506931h1.013861c1.013861-0.506931 2.534653-0.506931 3.548515-1.520792l235.215841-118.114852-0.50693 199.223763z m10.138614-243.326733L628.594059 616.934653 536.332673 456.237624l337.615842-180.974258 102.906931 166.780198-102.4 51.706931z" p-id="2601" fill="#ccc"></path></svg>